<svg width="250" height="150" viewBox="0 0 250 150" fill="none" xmlns="http://www.w3.org/2000/svg">
<path fill-rule="evenodd" clip-rule="evenodd" d="M208.505 0.584154C201.206 1.34785 195.14 4.08714 190.832 8.56525C187.284 12.2528 185.622 16.0534 185.389 21.0103C184.974 29.823 189.773 37.151 198.506 41.0395C199.682 41.5631 203.374 42.8371 206.712 43.8705C215.403 46.5617 217.256 47.2013 219.48 48.2773C223.474 50.2092 225.273 52.7468 225.273 56.4483C225.273 60.1977 223.268 63.1099 219.469 64.8813C216.413 66.306 213.816 66.7605 208.747 66.758C202.042 66.7546 196.697 65.6485 189.829 62.8423C186.755 61.5862 185.481 61.5827 184.836 62.8286C184.484 63.5069 184.433 69.3445 184.767 70.5654C185.243 72.3015 187.95 74.0384 192.402 75.4643C201.976 78.5312 211.853 79.0941 219.993 77.0362C225.452 75.6563 229.358 73.6092 232.74 70.356C237.08 66.1806 239.24 61.0958 239.24 55.056C239.24 48.5669 236.53 43.141 231.501 39.561C229.042 37.8108 226.309 36.6129 220.453 34.7189C217.423 33.7391 213.461 32.4565 211.648 31.8691C202.714 28.9737 199.59 26.4324 199.344 21.8596C199.191 19.021 199.883 17.0578 201.657 15.2985C203.993 12.9803 208.229 11.7669 213.984 11.7669C219.804 11.7669 224.74 12.7929 230.436 15.1868C231.814 15.766 232.359 15.8983 233.171 15.8508C234.017 15.8013 234.252 15.7004 234.597 15.2379C234.969 14.7402 235.017 14.3717 235.073 11.5778C235.111 9.67035 235.049 8.15121 234.912 7.64195C234.129 4.74069 228.52 2.32357 219.174 0.860576C216.866 0.499147 210.816 0.342481 208.505 0.584154ZM36.7089 0.793827C29.6451 1.44954 19.4757 4.57519 16.8116 6.90947C15.6657 7.91346 15.5606 8.37128 15.5606 12.3594C15.5606 18.0512 15.7811 18.1768 21.8 15.9181C25.541 14.5142 28.8854 13.5177 32.1776 12.8254C35.0687 12.2176 41.1388 11.9654 43.9327 12.337C50.5748 13.2206 54.0158 15.6766 55.6014 20.6658C56.4432 23.3148 56.6752 25.4023 56.676 30.3433L56.6767 34.8827L54.5619 34.4282C44.3138 32.226 35.4049 31.9298 28.8893 33.5748C23.8545 34.8458 19.8326 37.1152 16.5295 40.5493C12.2131 45.0369 10.3914 50.3095 10.7087 57.3973C10.9871 63.6131 12.8017 67.9634 16.7339 71.8415C20.6864 75.7397 25.3821 77.5812 32.0858 77.8624C39.2659 78.1633 45.6049 76.408 51.2596 72.553C52.2297 71.8918 54.0915 70.3206 55.3974 69.0616L57.7715 66.7727L58.7017 68.5928C60.5013 72.1144 62.6929 75.0783 64.1107 75.9089C64.8181 76.3232 65.139 76.3897 66.0978 76.3204C67.1576 76.2441 67.4562 76.0968 70.1725 74.3136C73.3282 72.2416 74.0663 71.6456 74.4981 70.8207C75.0381 69.7892 74.8499 68.8977 73.5062 66.1211C71.4878 61.9506 71.1864 60.8384 70.6529 55.5888C70.5301 54.3812 70.4477 47.632 70.4477 38.7981C70.4477 21.8355 70.3674 20.6811 68.863 15.9878C66.3123 8.03086 60.6455 3.29576 51.4835 1.46564C47.255 0.621063 41.4264 0.356028 36.7089 0.793827ZM79.361 2.73801C78.5493 3.0643 78.2489 3.80247 78.3801 5.14885C78.5118 6.49856 98.2575 71.5686 99.095 73.4121C99.7096 74.7646 100.422 75.5185 101.323 75.7682C101.708 75.8748 104.368 75.9606 107.236 75.9588C111.895 75.9561 112.535 75.9168 113.255 75.5903C114.235 75.1462 114.753 74.4552 115.263 72.9135C115.475 72.2699 118.467 59.9721 121.91 45.585C125.353 31.1977 128.229 19.492 128.299 19.5723C128.37 19.6524 131.328 31.777 134.872 46.5159C138.417 61.2549 141.479 73.6342 141.678 74.0254C142.102 74.8604 143.05 75.7073 143.793 75.9152C144.082 75.9963 146.665 76.0625 149.532 76.0625C154.7 76.0625 154.754 76.0582 155.729 75.5717C156.498 75.1879 156.827 74.8669 157.237 74.0992C157.775 73.0929 178.287 7.74266 178.683 5.77472C178.977 4.31467 178.674 3.25355 177.84 2.82341C177.335 2.5625 176.477 2.525 172.192 2.57683C167.515 2.63337 167.072 2.6691 166.228 3.0586C165.444 3.42003 165.23 3.65464 164.707 4.72734C164.264 5.63514 162.153 13.5065 156.963 33.6052C153.038 48.8015 149.783 61.2362 149.728 61.2376C149.673 61.2389 146.681 48.7615 143.08 33.5096C138.341 13.436 136.386 5.48083 136 4.69927C135.357 3.39903 134.539 2.8077 133.145 2.63553C132.582 2.56603 130.13 2.53815 127.696 2.57349C123.43 2.63553 123.234 2.65575 122.292 3.12869C121.519 3.51662 121.217 3.8168 120.852 4.56145C120.56 5.15454 117.957 15.7728 113.825 33.2245C110.215 48.4711 107.256 60.8877 107.249 60.8171C107.242 60.7462 104.097 48.3506 100.26 33.2709C95.4231 14.2623 93.1153 5.51676 92.7348 4.75522C92.111 3.50661 91.51 2.98459 90.4004 2.7276C89.4134 2.49928 79.9329 2.50811 79.361 2.73801ZM49.8755 43.0703C51.9578 43.361 54.9178 43.9092 56.3659 44.2718L56.8735 44.399L56.8674 47.2734C56.8514 54.8602 55.4212 58.6051 51.187 62.1465C47.8978 64.898 43.1295 66.5982 37.9876 66.8532C31.2986 67.185 26.9154 64.3018 25.6791 58.7565C25.2268 56.7275 25.3689 52.4141 25.9404 50.8256C26.6305 48.907 27.1923 48.0202 28.6222 46.5921C31.8316 43.3866 36.3298 42.266 44.578 42.617C46.201 42.6859 48.5847 42.8899 49.8755 43.0703ZM227.535 93.1614C219.721 93.9182 213.836 95.4112 208.856 97.9006C203.561 100.548 201.697 102.517 203.132 103.949C203.746 104.562 204.099 104.562 209.633 103.948C216.654 103.169 219.58 102.982 224.781 102.983C232.585 102.983 235.971 103.836 237.157 106.1C237.67 107.08 237.813 109.818 237.473 112.157C236.864 116.349 234.536 123.875 231.35 131.945C229.391 136.911 229.182 137.733 229.683 138.496C229.949 138.902 230.159 138.984 230.933 138.983C232.12 138.982 232.713 138.618 234.843 136.579C240.35 131.308 245.121 122.751 247.626 113.658C249.001 108.668 249.343 106.342 249.358 101.879C249.372 97.9401 249.361 97.8354 248.88 96.9708C248.484 96.2603 248.138 95.9623 247.109 95.4483C245.591 94.6893 242.858 93.9708 239.792 93.5238C237.682 93.2163 229.474 92.9735 227.535 93.1614ZM1.35194 98.2471C0.643329 98.6458 0.412567 99.1186 0.412567 100.171C0.412567 101.414 0.69861 101.74 5.03567 105.448C30.0278 126.815 60.6798 141.102 93.1698 146.529C116.58 150.44 139.762 149.949 162.91 145.052C185.414 140.291 205.355 132.181 221.866 121.074C226.943 117.66 227.76 116.752 227.591 114.718C227.431 112.803 225.887 111.512 223.746 111.503C222.897 111.499 221.962 111.801 218.533 113.183C198.707 121.176 177.999 126.551 156.614 129.255C138.255 131.576 119.776 131.704 100.842 129.642C67.3957 125.998 34.2482 115.442 6.25165 99.5201C3.49687 97.9534 2.38673 97.665 1.35194 98.2471Z" fill="#869AA7"/>
</svg>
