<svg width="596" height="107" viewBox="0 0 596 107" fill="none" xmlns="http://www.w3.org/2000/svg">
<path fill-rule="evenodd" clip-rule="evenodd" d="M73.4902 0.896044C72.9442 1.38349 72.2081 1.99589 71.8544 2.25677C71.5008 2.51765 70.8387 3.07022 70.3833 3.48474C69.9278 3.89909 69.2277 4.49875 68.8277 4.8173C68.4276 5.13569 67.4214 5.99323 66.5918 6.72299C65.762 7.45274 64.5988 8.41967 64.0067 8.87181C63.4146 9.32395 62.8556 9.77974 62.7645 9.88466C62.6734 9.98957 61.3691 11.1101 59.8661 12.3751C58.363 13.6398 56.8554 14.9283 56.5157 15.2383C56.176 15.5482 55.7288 15.918 55.5219 16.0598C55.315 16.2017 54.3516 16.9929 53.3807 17.8182C51.824 19.1414 50.6082 20.1598 47.6315 22.6333C45.2114 24.6444 43.845 25.8031 43.5371 26.1054C43.3467 26.2923 42.7284 26.8182 42.1633 27.274C41.2175 28.0366 40.1464 28.9326 38.6661 30.1995C38.3473 30.4725 37.2825 31.3701 36.2996 32.1945C34.8231 33.4333 34.3978 33.8987 33.8495 34.8759C33.4845 35.5262 33.1172 36.1701 33.0332 36.3069C32.9492 36.4436 32.4795 37.264 31.9896 38.13C31.4995 38.996 30.8577 40.1148 30.5632 40.6161C30.2689 41.1175 29.9625 41.6396 29.8823 41.7763C29.6919 42.1017 28.3907 44.4161 28.1585 44.8425C28.0593 45.0248 27.6938 45.6135 27.3464 46.1507C26.9991 46.688 26.6548 47.2847 26.5813 47.4766C26.5079 47.6687 26.0667 48.4467 25.6008 49.2053C25.1349 49.9641 24.7536 50.6425 24.7536 50.7127C24.7536 50.7832 24.4495 51.3116 24.0778 51.887C23.7062 52.4625 23.068 53.5368 22.6598 54.2745C22.2517 55.0122 21.777 55.8394 21.6049 56.1129C21.433 56.3864 21.0739 57.0233 20.8072 57.5283C20.5404 58.0333 20.0676 58.8538 19.7565 59.3515C19.4455 59.8492 19.0975 60.4731 18.983 60.7377C18.8686 61.0024 18.5304 61.5991 18.2314 62.0637C17.9325 62.5282 17.3873 63.4304 17.0197 64.0685C15.6681 66.4148 14.9107 67.7396 14.3321 68.7699C14.0062 69.3503 13.5789 70.0961 13.3824 70.4273C12.7711 71.4582 12.4765 71.9922 11.9912 72.949C11.7333 73.4578 11.4062 73.9703 11.2644 74.0881C11.1227 74.2058 11.0067 74.386 11.0067 74.4887C11.0067 74.5913 10.3671 75.7568 9.58516 77.0788C8.80324 78.4007 8.10116 79.5942 8.0248 79.731C7.94845 79.8677 7.17216 81.1913 6.29949 82.6725C5.42697 84.1536 4.71296 85.4014 4.71296 85.4457C4.71296 85.4899 4.42047 86.0042 4.06305 86.5886C3.70563 87.173 3.13588 88.1625 2.79702 88.7875C2.45815 89.4125 1.92285 90.3715 1.6075 90.9185C1.29215 91.4654 0.970666 92.0248 0.893154 92.1615C0.815641 92.2983 0.559751 92.7267 0.324564 93.1135C-0.0182802 93.6777 -0.0678014 93.8827 0.0749673 94.1494C0.251027 94.4786 0.406549 94.4819 15.4953 94.4819C25.8553 94.4819 30.8423 94.426 31.0639 94.3074C31.2431 94.2112 31.6759 93.5214 32.0257 92.7743C32.3753 92.0269 33.3889 89.8494 34.278 87.9351C35.1671 86.0208 36.6756 82.7764 37.6301 80.7254C38.5846 78.6744 39.5492 76.586 39.7736 76.0847C39.9979 75.5833 40.504 74.5018 40.8982 73.6814C41.2924 72.861 41.7406 71.8914 41.8943 71.5268C42.048 71.1622 42.5334 70.118 42.9732 69.2064C44.4671 66.1096 45.6568 63.5746 46.2015 62.3282C46.5003 61.6445 47.2438 60.041 47.8538 58.7648C48.464 57.4886 49.1727 55.9223 49.4287 55.2842C49.6848 54.6461 50.1212 53.6765 50.3983 53.1296C51.7468 50.4684 53.0755 47.6946 53.0755 47.5406C53.0755 47.446 53.4031 46.6884 53.8034 45.857C54.2037 45.0255 55.0608 43.2484 55.7081 41.9079C56.3553 40.5672 56.8848 39.4226 56.8848 39.3641C56.8848 39.3056 57.1762 38.6498 57.5321 37.9066C58.7461 35.3721 59.8661 32.9609 59.8661 32.8815C59.8661 32.8381 60.2681 31.9688 60.7591 30.9498C61.2504 29.9308 61.8544 28.6497 62.1015 28.1027C62.3485 27.5558 62.7929 26.6235 63.089 26.031C63.3851 25.4384 63.719 24.6727 63.8308 24.3291C63.9428 23.9857 64.2535 23.3145 64.5213 22.8375C64.9569 22.0618 65.1929 21.5692 65.6515 20.4786C65.7824 20.1677 66.8303 17.9529 68.2075 15.077C68.5387 14.3849 68.8098 13.7772 68.8098 13.7265C68.8098 13.6758 69.2259 12.7503 69.7345 11.6699C70.243 10.5896 70.7955 9.40716 70.9621 9.04253C71.1289 8.6779 71.7563 7.34916 72.3564 6.0897C72.9564 4.8304 73.4473 3.7665 73.4473 3.72556C73.4473 3.68463 73.7827 2.95669 74.1927 2.10777C75.337 -0.262156 75.1495 -0.585512 73.4902 0.896044ZM79.6762 7.765C79.5447 8.01958 79.2734 8.6721 79.0736 9.21523C78.2177 11.5411 77.3634 13.9501 76.9071 15.3241C76.6378 16.1354 76.3688 16.8779 76.3093 16.9742C76.1957 17.1582 75.6 18.8066 74.7435 21.3073C74.4625 22.1278 74.1749 22.8736 74.1044 22.9648C74.0338 23.0559 73.7867 23.6899 73.5553 24.3735C72.5159 27.4441 71.931 29.042 71.4627 30.0916C71.3813 30.2739 71.12 31.0198 70.882 31.749C70.644 32.4783 70.3505 33.2987 70.2296 33.5722C70.1087 33.8456 69.9235 34.3304 69.818 34.6495C69.0036 37.1116 68.2514 39.2345 68.1444 39.3731C68.0741 39.4642 67.7889 40.2101 67.5108 41.0305C67.2328 41.8509 66.7324 43.268 66.3987 44.1796C66.0651 45.0911 65.582 46.4336 65.3251 47.1629C65.0682 47.8922 64.622 49.1228 64.3335 49.8976C63.4113 52.3743 62.6887 54.4502 62.6852 54.6332C62.6811 54.8423 63.9506 56.4411 65.5828 58.2824C66.2218 59.0036 67.188 60.1528 67.7298 60.8365C68.5947 61.9281 70.079 63.7101 71.1809 64.98C71.3787 65.2079 71.8845 65.815 72.305 66.3293C73.7885 68.1437 75.1115 69.7133 75.8676 70.5559C76.2881 71.0246 77.0523 71.9317 77.5656 72.5718C80.1956 75.851 81.2307 77.0953 82.1786 78.1176C82.7505 78.7345 83.3966 79.5176 83.6141 79.8579C83.8317 80.1983 84.2496 80.7005 84.5427 80.974C84.8357 81.2475 85.7881 82.3662 86.6588 83.4601C87.5294 84.554 88.3258 85.5236 88.4283 85.6148C88.5306 85.7059 88.9845 86.2354 89.4365 86.7915C89.8884 87.3476 91.1899 88.8994 92.3286 90.2399C95.0261 93.4157 95.3098 93.7964 95.3098 94.2406C95.3098 94.5517 95.1942 94.6299 94.6059 94.7171C94.2189 94.7746 93.4548 94.8878 92.9083 94.9687C92.3617 95.0495 91.3928 95.2274 90.7552 95.3636C90.1175 95.4999 88.8505 95.7342 87.9395 95.8844C87.0286 96.0345 86.0224 96.2212 85.7036 96.2991C85.1209 96.4414 82.9262 96.8177 82.3083 96.881C82.1261 96.8997 81.7534 96.9653 81.4802 97.027C81.2069 97.0886 80.4988 97.2077 79.9067 97.2915C79.3146 97.3752 78.4575 97.5267 78.002 97.6281C77.5466 97.7294 76.913 97.8449 76.5942 97.8847C75.7267 97.9931 73.9389 98.303 73.2817 98.459C72.9629 98.5347 71.5095 98.7969 70.052 99.0417C68.5945 99.2867 67.1412 99.5484 66.8223 99.6235C66.5035 99.6984 65.4973 99.8801 64.5864 100.027C60.7023 100.654 58.8854 100.968 57.7958 101.201C57.1581 101.338 56.1892 101.522 55.6427 101.611C55.0961 101.7 54.3036 101.843 53.8816 101.93C53.4594 102.017 52.7379 102.124 52.2783 102.166C51.8187 102.209 50.9343 102.357 50.3128 102.494C48.7737 102.835 42.2933 103.967 40.5708 104.196C40.1153 104.256 39.5563 104.376 39.3286 104.463C39.1009 104.549 38.4673 104.656 37.9208 104.701C37.3742 104.745 36.5595 104.888 36.1102 105.018C35.661 105.148 34.9859 105.255 34.6099 105.255C34.234 105.255 33.7914 105.354 33.6265 105.474C33.3644 105.666 33.355 105.739 33.5519 106.054L33.777 106.415H84.4874C120.074 106.415 135.215 106.363 135.256 106.24C135.306 106.09 135.729 105.998 136.675 105.932C136.789 105.924 136.882 105.838 136.882 105.739C136.882 105.598 135.609 103.262 134.646 101.637C134.555 101.483 134.161 100.799 133.772 100.116C133.383 99.4327 132.908 98.613 132.717 98.2939C132.526 97.9749 132.171 97.3409 131.927 96.8851C131.684 96.4293 131.283 95.7594 131.036 95.3964C130.79 95.0335 130.588 94.6818 130.588 94.615C130.588 94.5482 130.151 93.7637 129.617 92.8717C129.083 91.9797 128.476 90.9143 128.269 90.5041C128.062 90.0939 127.747 89.5718 127.569 89.3439C127.391 89.116 127.14 88.7058 127.011 88.4323C126.882 88.1589 126.594 87.6368 126.371 87.2722C126.149 86.9075 125.913 86.4973 125.848 86.3606C125.783 86.2239 125.53 85.8136 125.287 85.449C125.044 85.0844 124.735 84.5623 124.599 84.2888C124.066 83.2092 122.95 81.2143 121.864 79.3995C121.237 78.3512 120.633 77.307 120.523 77.0791C120.412 76.8512 120.249 76.5529 120.161 76.4161C120.072 76.2794 119.494 75.2961 118.876 74.231C118.258 73.166 117.212 71.3702 116.551 70.2403C115.891 69.1105 115.35 68.1308 115.35 68.0631C115.35 67.9955 115.124 67.611 114.847 67.2088C114.571 66.8063 114.105 66.037 113.812 65.4988C113.52 64.9608 112.796 63.6853 112.204 62.6645C111.611 61.6437 110.883 60.386 110.584 59.8696C110.285 59.353 109.932 58.6932 109.8 58.4031C109.667 58.1131 109.48 57.8273 109.384 57.768C109.288 57.7088 109.039 57.312 108.831 56.8866C108.622 56.4611 107.991 55.3518 107.429 54.4217C106.867 53.4914 106.407 52.6851 106.407 52.6295C106.407 52.5742 105.81 51.5267 105.082 50.3019C104.353 49.077 103.757 48.034 103.757 47.9843C103.757 47.9344 103.297 47.1326 102.734 46.2023C102.172 45.2721 101.537 44.1754 101.323 43.7652C101.109 43.355 100.527 42.3481 100.029 41.5277C99.5318 40.7073 99.1237 39.9663 99.122 39.8809C99.1205 39.7957 98.9789 39.572 98.8075 39.3837C98.6363 39.1956 98.2157 38.5195 97.8732 37.8814C96.6531 35.608 96.5293 35.3875 96.1073 34.7323C95.7487 34.1756 95.0468 32.9488 93.488 30.1536C93.3513 29.9086 92.873 29.0859 92.4252 28.3253C91.9773 27.5647 91.4606 26.6442 91.2769 26.2796C91.0932 25.9149 90.7702 25.4058 90.5592 25.148C90.3482 24.8905 90.1755 24.5983 90.1755 24.499C90.1755 24.3997 89.8214 23.7528 89.3887 23.0615C88.5384 21.7028 88.4344 21.5223 87.8539 20.3958C87.3832 19.4825 85.2667 15.8318 84.8693 15.2477C84.7105 15.0142 84.3483 14.3802 84.0642 13.8389C83.7802 13.2976 83.2454 12.3728 82.8755 11.7839C82.1231 10.5854 81.4805 9.46467 80.8046 8.17239C80.2911 7.19071 80.0228 7.09391 79.6762 7.765ZM395.836 37.9979C393.577 38.4391 393.082 38.5898 391.613 39.2839C390.149 39.9757 389.857 40.1874 388.506 41.5337C387.427 42.6087 387.015 43.1622 386.56 44.1491C385.685 46.0428 385.466 47.3586 385.406 51.0578C385.378 52.8354 385.347 54.3439 385.337 54.4101C385.327 54.4762 384.071 54.5508 382.545 54.5758L379.771 54.6212L379.725 57.417C379.694 59.3381 379.739 60.2843 379.87 60.4417C380.016 60.6184 380.64 60.6708 382.597 60.6708C384.446 60.6708 385.17 60.727 385.266 60.8779C385.338 60.992 385.407 67.1264 385.42 74.5101C385.433 81.8939 385.453 88.0671 385.464 88.2283C385.483 88.5008 385.749 88.5184 389.253 88.4769L393.021 88.4323L393.104 74.593L393.186 60.7536H399.646H406.105L406.195 71.3611C406.284 81.9539 406.285 81.9701 406.678 83.2115C407.143 84.6791 408.264 86.472 409.16 87.1823C410.085 87.9152 411.717 88.6276 413.144 88.9218C415.607 89.4294 419.731 89.1213 421.384 88.3062L422.088 87.9592V85.102C422.088 83.0252 422.034 82.2265 421.889 82.1783C421.78 82.1418 421.352 82.3009 420.939 82.532C420.3 82.8893 419.953 82.9571 418.62 82.9848C417.492 83.0083 416.958 82.9516 416.718 82.7831C416.534 82.6541 416.265 82.5486 416.121 82.5486C415.689 82.5486 414.78 81.4697 414.419 80.5293C414.097 79.6892 414.079 79.2239 414.018 70.5388C413.983 65.5286 413.997 61.2601 414.048 61.0531L414.143 60.6767L418.074 60.6323L422.005 60.5879V57.6046V54.6212L418.03 54.5384L414.055 54.4555L414.011 49.5743C413.981 46.2795 413.909 44.6569 413.787 44.5817C413.688 44.5203 413.143 44.6383 412.577 44.844C412.011 45.0495 411.217 45.2725 410.814 45.3394C410.41 45.4064 409.933 45.5386 409.753 45.6336C409.431 45.8028 409.084 45.9036 407.433 46.3054C406.204 46.6049 406.177 46.7066 406.209 50.8921L406.236 54.4555H399.711H393.186L393.135 52.218C393.082 49.945 393.295 47.9159 393.684 46.974C393.963 46.3006 394.962 45.198 395.716 44.7313C396.212 44.425 396.613 44.3534 398.144 44.2986C399.222 44.26 400.284 44.3118 400.722 44.4249C402.388 44.8538 402.19 45.1568 402.246 42.0841C402.302 39.0567 402.207 38.4991 401.617 38.3776C401.398 38.3326 401.014 38.2494 400.764 38.1927C399.544 37.9169 396.806 37.8087 395.836 37.9979ZM223.752 39.0406C222.201 39.7922 221.019 41.4581 221.019 42.8926C221.019 43.8602 221.59 45.2904 222.234 45.9357C223.008 46.7106 224.35 47.3918 225.287 47.4851C226.929 47.6485 228.92 46.5729 229.792 45.051C230.212 44.3178 230.291 44.0011 230.293 43.0542C230.295 41.744 229.962 40.9531 229.028 40.0453C227.575 38.6334 225.434 38.2257 223.752 39.0406ZM164.077 41.3123C163.925 41.4651 163.879 46.8966 163.879 64.751C163.879 77.5329 163.924 88.1088 163.979 88.253C164.066 88.4802 164.528 88.5152 167.437 88.5152C170.087 88.5152 170.834 88.4671 170.984 88.2868C171.123 88.1184 171.171 83.2558 171.166 69.7653C171.162 59.7042 171.161 51.379 171.163 51.265C171.172 50.7116 171.519 51.1708 171.814 52.1275C172.2 53.3788 176.748 64.8809 177.725 67.0768C177.852 67.364 177.959 67.6624 177.962 67.7398C177.966 67.8172 178.112 68.1788 178.288 68.5435C178.464 68.9081 178.61 69.2697 178.614 69.3471C178.617 69.4245 178.725 69.7229 178.854 70.0101C179.133 70.6301 180.527 74.0625 180.884 75.0073C181.021 75.372 181.234 75.8941 181.357 76.1675C182.044 77.6975 182.263 78.2406 182.263 78.4118C182.263 78.5167 182.37 78.8005 182.502 79.0425C182.633 79.2844 182.936 80.0044 183.175 80.6425C183.414 81.2806 183.895 82.474 184.242 83.2944C184.59 84.1148 185.008 85.159 185.171 85.6148C185.334 86.0705 185.519 86.518 185.582 86.6092C185.646 86.7004 185.788 87.0554 185.898 87.398C186.249 88.4867 186.327 88.5152 188.964 88.5152C191.731 88.5152 191.854 88.461 192.355 87.0236C192.53 86.5222 192.789 85.8882 192.932 85.6148C193.075 85.3413 193.193 85.0171 193.193 84.8945C193.194 84.7718 193.297 84.4735 193.422 84.2315C193.897 83.3143 194.354 82.2563 194.354 82.0724C194.354 81.9671 194.421 81.7515 194.502 81.5932C194.584 81.4349 194.778 80.9699 194.934 80.5597C195.232 79.7732 195.747 78.4924 196.1 77.6592C196.216 77.3857 196.435 76.8264 196.587 76.4161C196.74 76.0059 196.97 75.4591 197.1 75.2011C197.229 74.943 197.335 74.6528 197.335 74.5562C197.335 74.4597 197.478 74.0742 197.654 73.6997C197.83 73.3249 198.319 72.1235 198.741 71.0296C199.163 69.9357 199.647 68.7051 199.817 68.2948C200.174 67.4351 201.344 64.4518 202.221 62.1624C202.553 61.2964 203.033 60.1031 203.288 59.5106C203.543 58.9181 203.919 57.9858 204.125 57.4388C204.331 56.8919 204.817 55.6613 205.206 54.7041C205.594 53.747 206.083 52.423 206.291 51.7622C206.5 51.1014 206.731 50.5606 206.804 50.5606C206.878 50.5606 206.883 51.5862 206.816 52.8395C206.748 54.093 206.693 62.6141 206.693 71.7754V88.4323L210.626 88.4768L214.56 88.5212V65.0034C214.56 46.0456 214.519 41.4511 214.347 41.3086C214.096 41.1003 204.324 41.0388 204.008 41.2436C203.897 41.3151 203.649 41.7438 203.456 42.1965C203.263 42.6491 203.009 43.2431 202.892 43.5166C202.775 43.7901 202.398 44.7224 202.055 45.5884C201.712 46.4544 201.109 47.946 200.716 48.9032C200.322 49.8603 199.41 52.1351 198.689 53.9583C196.288 60.0335 195.662 61.5789 195.421 62.0222C195.289 62.2642 195.182 62.5479 195.182 62.6529C195.182 62.8285 194.842 63.6637 194.268 64.8972C194.026 65.4166 192.663 68.8091 191.838 70.9467C191.574 71.6304 191.29 72.3389 191.208 72.5212C190.902 73.2023 189.883 76.0734 189.686 76.8111C189.397 77.8926 188.999 77.847 188.766 76.7062C188.621 75.9963 187.537 72.9724 186.908 71.5268C186.829 71.3445 186.593 70.7478 186.385 70.2009C186.177 69.6539 185.946 69.1357 185.874 69.049C185.801 68.9625 185.741 68.7904 185.741 68.6669C185.741 68.5435 185.605 68.1294 185.439 67.7471C185.273 67.3647 185.021 66.7535 184.879 66.3888C184.737 66.0242 184.266 64.8309 183.831 63.737C183.397 62.6431 182.913 61.372 182.755 60.9126C182.597 60.453 182.321 59.7444 182.141 59.338C181.824 58.6237 178.682 50.6431 177.185 46.7486C176.782 45.7002 176.343 44.6314 176.211 44.3733C176.078 44.1153 175.969 43.8158 175.969 43.7079C175.969 43.6 175.82 43.2334 175.638 42.8933C175.456 42.553 175.307 42.1627 175.307 42.0256C175.307 41.8885 175.158 41.6272 174.975 41.4448C174.658 41.1275 174.423 41.1134 169.46 41.1134C165.649 41.1134 164.223 41.1661 164.077 41.3123ZM453.233 41.8802C453.047 42.3021 452.894 42.7063 452.894 42.7787C452.894 42.851 452.638 43.5178 452.325 44.2601C452.012 45.0025 451.706 45.8476 451.644 46.1378C451.582 46.4282 451.476 46.7403 451.408 46.8314C451.34 46.9226 451.082 47.5935 450.834 48.3224C450.586 49.0513 450.325 49.7226 450.254 49.8141C450.184 49.9056 450.084 50.1297 450.032 50.312C449.867 50.8934 448.919 53.4417 448.666 53.9833C448.532 54.2705 448.422 54.6062 448.421 54.7291C448.421 54.8521 448.324 55.1392 448.207 55.3671C448.089 55.595 447.821 56.2662 447.612 56.8587C447.402 57.4513 447.172 58.0852 447.101 58.2675C446.82 58.987 446.448 59.971 446.1 60.9194C445.899 61.4663 445.631 62.1488 445.505 62.4361C445.379 62.7233 445.275 63.0589 445.274 63.1819C445.274 63.3049 445.174 63.5961 445.053 63.8291C444.931 64.062 444.627 64.8448 444.377 65.5687C444.128 66.2925 443.866 66.9596 443.795 67.0511C443.725 67.1426 443.625 67.3667 443.573 67.549C443.408 68.1304 442.46 70.6787 442.207 71.2203C442.073 71.5076 441.963 71.8319 441.963 71.9411C441.963 72.0504 441.86 72.3747 441.733 72.6619C441.607 72.9492 441.338 73.6317 441.136 74.1786C440.934 74.7256 440.595 75.6206 440.383 76.1675C439.786 77.7058 439.044 79.7444 438.815 80.4768C438.701 80.8414 438.55 81.2143 438.481 81.3055C438.411 81.3967 438.277 81.7323 438.184 82.0513C438.091 82.3704 437.87 83.0043 437.694 83.4601C436.409 86.7817 435.978 88.0513 436.06 88.2669C436.204 88.6408 444.139 88.638 444.449 88.264C444.674 87.9938 447.161 80.8008 447.457 79.5652C447.556 79.155 447.739 78.6722 447.864 78.4924C447.989 78.3127 448.091 77.9998 448.091 77.7973C448.091 77.5947 448.259 77.2362 448.464 77.0005L448.836 76.5719L457.748 76.5738C462.649 76.5749 466.762 76.6333 466.888 76.7037C467.014 76.774 467.339 77.5026 467.611 78.3227C468.443 80.8277 469.639 84.2341 469.786 84.5177C469.862 84.6654 470.075 85.2708 470.257 85.8634C470.44 86.4559 470.742 87.2954 470.928 87.7288L471.268 88.5167L489.036 88.4746L506.805 88.4323L506.851 85.6366C506.882 83.6966 506.837 82.77 506.704 82.609C506.543 82.4156 505.083 82.3787 497.894 82.3858C493.155 82.3904 489.214 82.3313 489.137 82.254C489.06 82.177 489.517 81.4099 490.152 80.5495C490.788 79.689 492.131 77.8664 493.138 76.499C494.144 75.1317 495.875 72.7823 496.983 71.2782C498.092 69.7741 499.324 68.096 499.723 67.549C500.121 67.0021 501.057 65.7308 501.804 64.724C503.911 61.8825 505.445 59.8102 505.846 59.2636C506.774 57.9997 506.903 57.5875 506.853 56.0657L506.805 54.6212H493.307H479.808L479.763 57.417C479.731 59.385 479.775 60.2824 479.913 60.4487C480.078 60.6477 481.374 60.6814 488.157 60.6627C492.674 60.6502 496.205 60.7042 496.205 60.7858C496.205 60.8657 495.646 61.6932 494.963 62.6245C493.377 64.7869 490.145 69.1482 489.41 70.118C488.636 71.1398 486.837 73.5846 486.433 74.1642C486.251 74.4258 485.953 74.8413 485.771 75.0879C485.25 75.792 483.909 77.5858 483.291 78.405C482.981 78.8152 481.825 80.3679 480.722 81.8554C479.619 83.3429 478.631 84.5315 478.526 84.4965C478.349 84.4373 478.129 83.8919 477.008 80.7254C476.766 80.0417 476.499 79.3332 476.416 79.1509C476.244 78.7726 475.733 77.4401 475.431 76.5819C474.758 74.6643 474.242 73.2377 473.934 72.4384C473.741 71.937 473.405 71.042 473.188 70.4495C472.225 67.8236 471.063 64.7037 470.934 64.3999C470.857 64.2176 470.633 63.621 470.437 63.074C469.664 60.9166 468.968 59.0469 468.56 58.0289C468.324 57.442 468.132 56.8814 468.132 56.7835C468.132 56.6854 467.983 56.3269 467.8 55.9868C467.618 55.6465 467.469 55.2587 467.469 55.1248C467.469 54.9907 467.364 54.6362 467.236 54.3368C467.108 54.0375 466.728 53.0467 466.393 52.1351C465.527 49.7821 465.313 49.2179 465.076 48.6546C464.961 48.3811 464.697 47.6726 464.49 47.08C463.648 44.6751 463.147 43.324 462.913 42.8286C462.777 42.5414 462.666 42.187 462.666 42.0413C462.666 41.8955 462.517 41.6272 462.335 41.4448C462.021 41.1308 461.783 41.1134 457.788 41.1134H453.572L453.233 41.8802ZM458.105 50.0073C458.234 50.6914 459.194 53.6168 461.171 59.3448C461.911 61.487 462.631 63.6127 462.773 64.0685C462.914 64.5242 463.108 65.0836 463.204 65.3115C463.755 66.6262 464.757 69.8056 464.643 69.8763C464.544 69.937 455.085 69.9909 450.929 69.9542C450.626 69.9516 450.732 69.4757 451.558 67.1347C451.928 66.0864 452.535 64.2964 452.907 63.1569C453.279 62.0174 453.66 60.8987 453.754 60.6708C453.848 60.4429 454.213 59.3987 454.565 58.3504C454.916 57.3021 455.649 55.1241 456.193 53.5106C456.737 51.8969 457.232 50.3121 457.293 49.9886C457.447 49.1644 457.95 49.176 458.105 50.0073ZM248.983 53.9863C248.132 54.0927 247.138 54.2627 246.774 54.364C244.852 54.8984 244.181 55.1476 243.047 55.7483C238.546 58.1338 235.693 61.8039 234.328 66.9661C233.658 69.4985 233.643 74.928 234.3 77.0791C235.71 81.7006 237.857 84.67 241.294 86.7536C243.226 87.925 244.617 88.438 247.2 88.9312C248.269 89.1353 249.253 89.1846 251.175 89.1309C253.852 89.056 255.599 88.7777 257.125 88.1831C257.626 87.988 258.26 87.7454 258.533 87.6441C258.807 87.5428 259.272 87.3171 259.568 87.1426L260.107 86.825V83.6872C260.107 81.1951 260.06 80.5315 259.882 80.4629C259.758 80.4153 259.159 80.7171 258.551 81.1338C256.586 82.4803 254.598 83.0232 251.825 82.971C250.762 82.951 249.759 82.8495 249.558 82.7418C249.36 82.6356 249.021 82.5486 248.806 82.5486C248.284 82.5486 246.459 81.6005 245.429 80.7944C243.688 79.4321 242.773 77.8957 242.043 75.1106C241.632 73.5432 241.59 69.8717 241.971 68.7921C242.107 68.4046 242.219 67.9481 242.219 67.7777C242.219 67.6075 242.548 66.7679 242.951 65.9122C244.187 63.282 246.339 61.4174 249.194 60.5025C250.502 60.0834 253.414 59.8954 254.475 60.1616C254.885 60.2645 255.333 60.3769 255.469 60.4112C255.606 60.4457 255.941 60.5266 256.215 60.5911C256.882 60.7483 258.763 61.6263 259.244 62.005C260.044 62.635 260.107 62.4062 260.107 58.8501C260.107 56.3181 260.056 55.5316 259.885 55.3896C259.549 55.1107 257.391 54.3841 256.132 54.1263C254.524 53.7972 251.038 53.7289 248.983 53.9863ZM279.65 53.8462C276.961 54.1956 274.382 56.2094 272.906 59.113C272.471 59.9689 272.06 60.6696 271.994 60.6699C271.928 60.6704 271.853 59.3095 271.829 57.646L271.783 54.6212L268.305 54.5743C266.392 54.5485 264.659 54.5685 264.454 54.6189L264.082 54.7104V71.2923C264.082 82.4055 264.138 87.9797 264.253 88.1947C264.415 88.4967 264.635 88.5152 268.068 88.5152C270.83 88.5152 271.73 88.4652 271.79 88.308C271.833 88.1942 271.894 83.9242 271.925 78.8194C271.971 71.3446 272.03 69.3266 272.229 68.4525C273.166 64.3345 275.038 61.9544 278.08 61.0137C279.649 60.5282 282.197 60.7942 283.091 61.5369C283.282 61.6957 283.376 61.6722 283.561 61.4201C283.739 61.1764 283.791 60.3777 283.791 57.9109C283.791 54.8579 283.775 54.7024 283.436 54.3856C282.965 53.947 281.015 53.6691 279.65 53.8462ZM298.366 53.909C295.127 54.1769 291.575 55.5258 289.109 57.4252C288.095 58.2062 286.676 59.7595 285.767 61.0851C284.784 62.5183 283.713 65.1789 283.364 67.0518C283.33 67.2341 283.23 67.7562 283.142 68.212C282.842 69.7739 282.929 74.2076 283.298 76.1031C283.483 77.0501 283.733 78.0487 283.854 78.3222C283.975 78.5956 284.164 79.0965 284.273 79.4353C284.656 80.6278 286.063 82.7814 287.415 84.2467C288.36 85.27 290.259 86.7071 291.41 87.269C291.911 87.5136 292.465 87.7914 292.641 87.8864C293.185 88.1789 295.067 88.6844 296.544 88.9342C298.101 89.1976 302.516 89.2615 303.269 89.0317C303.533 88.9511 304.271 88.7904 304.908 88.6747C305.546 88.559 306.179 88.4121 306.316 88.3483C307.24 87.9176 307.778 87.694 308.138 87.5909C308.366 87.5256 308.85 87.2801 309.215 87.0451C309.579 86.8099 310.041 86.5291 310.24 86.4209C312.079 85.4253 314.816 82.2835 315.773 80.0714C315.953 79.6562 316.179 79.1757 316.275 79.0035C316.972 77.7611 317.579 74.1707 317.579 71.2885C317.579 67.729 317.138 65.456 315.901 62.6426C315.17 60.9807 314.502 59.95 313.34 58.694C312.406 57.6845 310.396 56.03 310.103 56.03C310.027 56.03 309.61 55.8142 309.176 55.5504C308.742 55.2865 308.126 55.0169 307.807 54.9511C307.488 54.8854 307.153 54.7772 307.061 54.7107C306.932 54.6163 305.603 54.2014 305.157 54.1162C303.733 53.8441 300.386 53.742 298.366 53.909ZM331.189 53.9081C328.948 54.1555 325.837 55.1911 324.366 56.1792C322.192 57.6409 320.717 59.4357 320.131 61.3337C319.551 63.2169 319.742 66.2761 320.54 67.841C322.01 70.7261 324.571 72.4354 330.791 74.6812C332.787 75.402 333.299 75.6504 334.36 76.4128C335.558 77.2738 335.88 77.9063 335.88 79.3995C335.88 80.3997 335.807 80.7594 335.508 81.241C335.007 82.0477 334.013 82.7065 332.859 82.9977C331.577 83.3209 327.438 83.3907 326.122 83.1111C324.276 82.7186 322.089 81.8178 320.899 80.9601C319.851 80.2042 319.82 80.2794 319.768 83.7109C319.742 85.3961 319.758 86.9297 319.805 87.1188C319.854 87.321 320.112 87.538 320.432 87.6457C320.73 87.7464 321.309 87.9555 321.719 88.1103C322.129 88.2651 323.396 88.5679 324.535 88.7832C328.058 89.4493 331.881 89.3199 335.383 88.4161C337.968 87.749 340.414 86.254 341.713 84.5467C342.543 83.4571 343.085 82.5746 343.085 82.3139C343.085 82.1975 343.203 81.8659 343.347 81.577C343.657 80.9543 343.751 78.8191 343.537 77.2448C343.384 76.1239 342.624 74.3898 341.826 73.3428C340.526 71.6368 337.234 69.8367 331.657 67.7817C329.375 66.9411 328.02 65.8959 327.7 64.7314C327.168 62.7924 327.762 61.4436 329.541 60.5506C331.123 59.757 331.884 59.5908 333.81 59.6183C336.515 59.6569 339.568 60.4613 340.855 61.475C341.296 61.8217 341.92 61.9563 341.931 61.7067C341.934 61.6384 341.942 60.213 341.948 58.5395C341.962 55.1824 341.948 55.1345 340.914 54.8647C339.741 54.5589 338.189 54.1712 337.95 54.1243C336.508 53.8408 332.857 53.7241 331.189 53.9081ZM360.972 53.8998C359.697 54.01 359.493 54.0428 358.074 54.3682C354.905 55.0946 352.337 56.511 350.12 58.7548C349.046 59.8412 347.225 62.3569 347.225 62.7538C347.225 62.799 347.102 63.1133 346.95 63.4522C346.478 64.5097 346.249 65.1817 345.868 66.6374C345.542 67.8802 345.497 68.4662 345.492 71.6097C345.488 73.9768 345.559 75.4792 345.702 76.0847C345.82 76.586 346 77.3319 346.101 77.7421C346.586 79.7182 348.212 82.5076 349.946 84.339C350.704 85.1404 352.42 86.5263 352.653 86.5263C352.737 86.5263 352.931 86.6652 353.084 86.8348C353.238 87.0045 353.641 87.2587 353.98 87.3998C357.443 88.8414 358.987 89.1782 362.135 89.1782C365.171 89.1782 367.86 88.7633 369.482 88.0445C369.926 87.8476 370.373 87.6852 370.475 87.6837C370.578 87.6822 371.349 87.2533 372.19 86.7307C374.303 85.4179 376.464 83.2423 377.571 81.313C378.212 80.1979 379.025 78.3782 379.025 78.0616C379.025 77.8768 379.139 77.5051 379.279 77.2356C380.045 75.752 380.197 69.0178 379.53 66.1092C379.23 64.8024 378.353 62.4195 377.941 61.793C377.718 61.4532 377.535 61.14 377.535 61.0971C377.535 61.054 377.297 60.6608 377.006 60.2233C376.147 58.9305 374.078 56.9739 372.761 56.2089C371.423 55.4315 369.37 54.5384 368.92 54.5384C368.761 54.5384 368.38 54.4341 368.073 54.3067C367.116 53.9092 363.357 53.6939 360.972 53.8998ZM560.567 53.9924C559.199 54.2694 558.01 54.8798 556.842 55.9046C555.805 56.8153 554.457 58.718 554.171 59.675C554.076 59.9934 553.872 60.2781 553.717 60.308C553.463 60.3569 553.432 60.0875 553.391 57.4917L553.346 54.6212H549.536H545.727V71.5268V88.4323L549.389 88.4769C552.294 88.5122 553.09 88.4754 553.236 88.2989C553.366 88.1421 553.426 85.4384 553.44 79.1386C553.453 72.5746 553.517 69.8487 553.678 68.8749C554.051 66.623 554.941 64.5639 556.131 63.2036C556.876 62.351 558.53 61.168 558.975 61.168C559.182 61.168 559.618 61.0565 559.944 60.9199C560.651 60.6242 562.172 60.6981 563.532 61.0942C564.033 61.2404 564.617 61.3727 564.831 61.3883L565.219 61.4166L565.212 58.041C565.203 54.1179 565.214 54.148 563.729 53.9533C562.277 53.7627 561.663 53.7703 560.567 53.9924ZM578.935 53.8359C577.989 53.9349 576.561 54.2425 575.586 54.5574C571.618 55.8379 567.966 59.0886 566.204 62.9083C564.729 66.1046 564.458 67.4627 564.453 71.6925C564.449 75.4338 564.837 78.0122 565.675 79.8138C565.76 79.9961 565.981 80.4809 566.167 80.8911C566.52 81.6713 566.555 81.7299 567.533 83.2075C568.931 85.3182 571.794 87.4913 574.168 88.2431C576.499 88.9811 577.851 89.179 580.518 89.1729C582.587 89.1682 584.725 88.9553 586.885 88.5387C588.244 88.2767 590.689 87.3174 591.895 86.5739L592.516 86.1907L592.514 83.4165C592.512 81.8909 592.445 80.5374 592.363 80.409C592.243 80.2196 592.049 80.2852 591.331 80.7585C589.939 81.6753 588.697 82.1953 586.6 82.7388C585.422 83.0441 584.69 83.1169 582.744 83.1222C581.423 83.1257 580.045 83.0753 579.68 83.01C576.988 82.5273 574.716 81.0044 573.518 78.8796C572.672 77.3804 571.951 74.48 572.292 73.9494C572.415 73.758 574.277 73.7209 583.596 73.7238C590.109 73.7258 594.873 73.6637 595.042 73.5744C595.289 73.4437 595.33 73.1832 595.32 71.811C595.284 66.9477 594.16 62.5937 592.102 59.3478C591.899 59.0271 591.106 58.1643 590.341 57.4304C589.237 56.3721 588.624 55.9384 587.379 55.3337C585.931 54.6312 585.031 54.2671 584.4 54.1297C583.38 53.9071 579.994 53.7251 578.935 53.8359ZM221.792 54.6489C221.654 54.787 221.644 87.8937 221.782 88.253C221.87 88.4811 222.354 88.5152 225.497 88.5152C228.308 88.5152 229.161 88.4655 229.335 88.2916C229.519 88.107 229.556 85.1896 229.549 71.5104C229.544 62.4038 229.482 54.8596 229.411 54.7455C229.313 54.5899 228.364 54.5384 225.592 54.5384C223.563 54.5384 221.853 54.5881 221.792 54.6489ZM509.275 54.7639C509.227 54.8916 509.214 60.2816 509.248 66.7419C509.309 78.3432 509.314 78.5083 509.695 80.1453C510.384 83.1094 512.129 86.0086 513.917 87.1608C516.365 88.7383 517.632 89.0826 520.966 89.0771C522.287 89.0749 523.71 88.9894 524.128 88.887C525.52 88.5461 527.095 87.8204 528.052 87.0789C529.075 86.2867 530.836 84.3495 530.998 83.8392C531.053 83.6663 531.184 83.5536 531.29 83.5887C531.42 83.6318 531.51 84.4363 531.566 86.0425L531.649 88.4323H535.458H539.268L539.313 71.8583C539.338 62.7425 539.318 55.115 539.268 54.9081L539.177 54.5322L535.413 54.5766L531.649 54.6212L531.557 65.3944C531.457 77.1141 531.497 76.6117 530.486 78.8373C530.012 79.8821 528.429 81.6207 527.522 82.0946C526.085 82.8451 525.267 83.0315 523.699 82.9654C522.028 82.8948 521.006 82.6452 520.113 82.0891C519.272 81.5659 518.342 80.4945 517.94 79.5864C517.07 77.6161 517.092 77.9365 516.997 65.8916L516.908 54.6212L513.136 54.5766C510.028 54.54 509.349 54.5728 509.275 54.7639ZM583.069 59.9374C585.604 60.8247 587.307 63.5291 587.423 66.8519L587.465 68.0462H579.846H572.227L572.281 67.4661C572.31 67.1471 572.443 66.5579 572.577 66.1568C573.825 62.4089 576.113 60.1686 579.266 59.608C580.016 59.4748 582.316 59.674 583.069 59.9374ZM302.424 60.1868C302.788 60.2809 303.319 60.4183 303.603 60.4921C306.545 61.2553 308.874 64.4719 309.456 68.5733C309.653 69.9672 309.642 73.1375 309.435 74.593C308.796 79.0834 306.717 81.6781 302.892 82.7597C302.401 82.8986 301.304 83.0048 300.325 83.0085C296.081 83.0244 293.178 80.9342 291.513 76.6648C291.057 75.495 290.86 73.3561 290.958 70.6252C291.056 67.8702 291.325 66.6905 292.318 64.6689C293.231 62.8108 295.36 61.0405 297.455 60.3981C298.752 60.0003 301.285 59.8926 302.424 60.1868ZM365.61 60.3686C368.002 61.0656 369.585 62.4021 370.702 64.6679C371.732 66.7594 371.983 68.1395 371.977 71.6925C371.973 74.0467 371.907 74.9205 371.667 75.8361C370.406 80.6341 367.501 83.0063 362.877 83.0139C358.43 83.0211 355.334 80.7469 353.895 76.4161C353.556 75.3973 353.462 74.7095 353.376 72.6041C353.214 68.653 353.697 66.3457 355.149 64.1309C356.516 62.0471 357.812 61.0359 359.896 60.4276C360.442 60.2682 360.964 60.1144 361.055 60.0859C361.146 60.0574 361.929 60.0279 362.794 60.0204C363.954 60.0103 364.694 60.102 365.61 60.3686Z" fill="#869AA7"/>
</svg>
