<svg width="647" height="109" viewBox="0 0 647 109" fill="none" xmlns="http://www.w3.org/2000/svg">
<path fill-rule="evenodd" clip-rule="evenodd" d="M40.275 1.42525C18.4 7.31725 0 29.5403 0 50.0683V54.8863H11H22V51.4243C22 45.5253 25.776 37.2493 30.826 32.0773C37.578 25.1633 43.67 22.4873 53.655 22.0473C60.833 21.7323 62.538 22.0153 67.889 24.4173C88.251 33.5553 93.625 60.8733 78.174 76.6953C72.789 82.2093 66.424 85.5923 59.702 86.5133L55 87.1583V76.5223V65.8863H44H33V76.3863V86.8863H25.5H18V80.3863V73.8863H10.5H3V80.8863V87.8863H10H17V96.3863V104.886H25.5H34V96.3863V87.8863H44H54V98.3863V108.886H58.818C69.883 108.886 83.538 102.555 93.103 92.9893C103.91 82.1833 109.238 69.2703 109.238 53.8863C109.238 28.8603 93.101 7.57525 69.458 1.41725C62.191 -0.475747 47.316 -0.471746 40.275 1.42525ZM213.073 26.5213C211.933 27.9703 211 29.9343 211 30.8863C211 31.8383 211.933 33.8023 213.073 35.2513C217.207 40.5083 225.333 37.6153 225.333 30.8863C225.333 24.1573 217.207 21.2643 213.073 26.5213ZM285.573 25.4563C281.045 29.9843 283.72 37.1283 290.15 37.6853C296.289 38.2153 299.83 31.4823 295.984 26.5933C293.518 23.4573 288.157 22.8723 285.573 25.4563ZM426.5 24.7573C417.613 27.0823 409.824 33.1213 405.517 41.0273C403.092 45.4763 402.527 47.8493 402.182 55.0033C401.81 62.7523 402.045 64.2363 404.519 69.7503C407.678 76.7873 413.818 82.9893 420.824 86.2203C424.518 87.9233 427.39 88.3753 434.5 88.3723C442.298 88.3683 444.173 88.0143 448.54 85.7163C454.726 82.4623 461.389 75.4033 464.217 69.1063C467.497 61.8033 467.26 50.1503 463.682 42.7433C460.484 36.1233 453.746 29.5463 447.192 26.6473C442.172 24.4263 431.494 23.4513 426.5 24.7573ZM151 56.4033V88.0963L166.75 87.7193C181.158 87.3743 182.974 87.1213 188.067 84.7533C195.302 81.3893 200.435 76.0023 203.071 69.0073C206.092 60.9913 205.487 47.5543 201.782 40.3863C198.493 34.0223 195.938 31.6783 188.497 28.1943C182.86 25.5543 181.556 25.3663 166.75 25.0483L151 24.7103V56.4033ZM382 56.3863V87.8863H388H394V56.3863V24.8863H388H382V56.3863ZM309 36.8863V42.8863H305.5H302V48.3863V53.8863H305.5H309V65.4183C309 83.2423 311.372 86.7502 324.032 87.6562L331 88.1553V82.5203V76.8863H327.035C321.741 76.8863 321 75.2363 321 63.4523V53.8863H326H331V48.3863V42.8863H326H321V36.8863V30.8863H315H309V36.8863ZM176.914 36.9613C183.044 38.2763 187.777 41.3403 190.27 45.6093C192.493 49.4153 192.948 59.5213 191.142 64.9713C188.698 72.3443 180.244 76.8863 168.965 76.8863H163V56.3863V35.8863H167.451C169.899 35.8863 174.157 36.3703 176.914 36.9613ZM442.571 37.7793C457.134 44.3933 458.368 65.3643 444.663 73.3203C436.12 78.2803 427.914 77.5103 420.79 71.0823C415.847 66.6213 413.993 62.5363 414.022 56.1683C414.061 47.6543 419.16 40.1393 427.03 36.9993C430.987 35.4193 438.169 35.7803 442.571 37.7793ZM245 43.4803C230.121 49.9253 226.711 71.8923 238.987 82.2223C244.379 86.7593 253.102 88.1243 259.532 85.4373C262.885 84.0363 263 84.0623 263 86.2153C263 91.4613 256.742 95.6233 250.588 94.4693C248.694 94.1133 245.713 92.4873 243.966 90.8543C242.218 89.2223 240.477 87.8863 240.097 87.8863C239.717 87.8863 237.715 89.6183 235.648 91.7343L231.89 95.5833L235.63 98.8663C246.115 108.072 260.01 108.338 268.527 99.4963C274.432 93.3673 275 90.3393 275 65.0203V42.8863H269.083C265.567 42.8863 263.014 43.3453 262.789 44.0183C262.528 44.8013 261.438 44.6473 259.256 43.5183C255.349 41.4983 249.612 41.4833 245 43.4803ZM349.589 42.9673C344.679 44.1663 339.309 47.4403 337.883 50.1043C336.955 51.8393 337.32 52.6733 340.327 55.6793L343.862 59.2143L347.466 56.0503C352.051 52.0243 356.963 51.7583 360.545 55.3413C364.714 59.5093 363.846 60.4263 356.075 60.0573C344.053 59.4863 337.307 63.9803 336.261 73.2593C334.92 85.1643 346.763 92.3543 358.75 86.9133C362.245 85.3273 363 85.2423 363 86.4353C363 87.5273 364.36 87.8863 368.5 87.8863H374V70.5343C374 54.1773 373.87 52.9873 371.737 49.7843C367.829 43.9173 358.04 40.9043 349.589 42.9673ZM530.275 42.8573C520.804 45.1073 514.978 54.0563 515.022 66.2853C515.081 82.7113 528.914 92.5873 545.078 87.7453C549.3 86.4803 556 81.4283 556 79.5093C556 78.8323 554.452 76.7783 552.559 74.9433L549.118 71.6093L545.982 74.2483C542.176 77.4513 539.097 78.3143 534.537 77.4593C531.394 76.8693 527 72.9593 527 70.7513C527 70.2753 533.525 69.8863 541.5 69.8863H556L555.994 64.6363C555.982 53.1663 551.509 46.0053 542.724 43.3973C537.224 41.7633 535.24 41.6773 530.275 42.8573ZM573.721 43.2583C569.093 44.5493 564.737 47.6793 562.946 50.9993C562.284 52.2273 563.053 53.3983 566.165 55.8983C569.763 58.7893 570.364 58.9863 571.177 57.5353C572.481 55.2053 577.356 52.8863 580.95 52.8863C584.32 52.8863 588.001 55.8893 587.998 58.6363C587.996 60.1643 586.927 60.3863 579.569 60.3863C570.467 60.3863 567.877 61.4923 563.619 67.1943C560.875 70.8693 560.88 78.8913 563.629 82.6403C568.108 88.7493 577.152 90.4513 584.817 86.6273C587.493 85.2923 588 85.2663 588 86.4633C588 87.5363 589.477 87.8863 594 87.8863H600V71.9062C600 52.7222 599.003 49.1393 592.63 45.4193C587.418 42.3753 579.944 41.5213 573.721 43.2583ZM622.25 43.3773C620.462 44.1543 619 44.3613 619 43.8383C619 43.3143 616.3 42.8863 613 42.8863H607V65.3863V87.8863H613H619L619.006 75.6363C619.009 68.8993 619.476 61.7123 620.044 59.6653C621.937 52.8503 629.031 50.5683 632.927 55.5213C634.813 57.9183 635 59.4963 635 73.0213V87.8863H641H647V71.5433C647 56.4513 646.825 54.8633 644.706 50.7933C640.747 43.1863 630.486 39.7973 622.25 43.3773ZM212 65.3863V87.8863H218.5H225V65.3863V42.8863H218.5H212V65.3863ZM284 65.3863V87.8863H290.5H297V65.3863V42.8863H290.5H284V65.3863ZM485.157 44.5793C477.738 48.2343 473.158 54.9533 472.279 63.4733C470.756 78.2273 480.449 89.2663 495 89.3493C500.34 89.3793 502.34 88.8923 506.204 86.6213C508.791 85.1003 511.606 82.8593 512.459 81.6413C513.932 79.5383 513.812 79.2273 510.075 75.4913L506.14 71.5563L502.535 74.7213C493.955 82.2553 482.715 75.5003 484.291 63.7563C485.506 54.6963 495.043 50.6863 501.818 56.3863C503.452 57.7613 505.198 58.8863 505.698 58.8863C506.198 58.8863 508.129 57.3163 509.989 55.3973L513.37 51.9093L510.935 49.2663C505.381 43.2363 492.598 40.9123 485.157 44.5793ZM260.628 56.0063C265.525 60.6073 264.566 71.5083 259.011 74.3803C254.377 76.7773 250.254 76.2933 246.923 72.9633C244.113 70.1533 243.487 67.7933 243.99 61.9113C244.672 53.9463 254.661 50.4013 260.628 56.0063ZM541.545 55.3413C545.465 59.2603 544.702 59.8863 536 59.8863C531.6 59.8863 528 59.4763 528 58.9753C528 57.2393 534.165 52.8863 536.622 52.8863C537.98 52.8863 540.195 53.9913 541.545 55.3413ZM359.75 70.5163C365.421 72.0363 360.38 77.8863 353.4 77.8863C347.949 77.8863 346.121 75.8763 348.405 72.3913C350.094 69.8133 354.445 69.0953 359.75 70.5163ZM584.875 70.5113C591.785 71.8933 585.874 78.3413 578.291 77.6933C573.585 77.2903 571.895 74.7643 574.447 71.9453C576.36 69.8313 579.391 69.4143 584.875 70.5113Z" fill="#869AA7"/>
</svg>
