<svg width="628" height="99" viewBox="0 0 628 99" fill="none" xmlns="http://www.w3.org/2000/svg">
<path fill-rule="evenodd" clip-rule="evenodd" d="M49.1435 1.00688C42.8779 2.24223 33.3246 6.6494 28.2473 10.6478C23.5209 14.3695 16.1553 24.9557 14.2337 30.7886C13.4892 33.0499 11.1216 36.6607 8.97307 38.8133C1.14691 46.6533 -1.95964 59.3865 1.25199 70.452C3.44971 78.022 10.8187 87.1209 17.6466 90.6947C22.6166 93.2965 23.0962 93.3278 57.8897 93.3278C91.8761 93.3278 93.2577 93.2438 97.5738 90.9031C117.34 80.1825 121.461 53.3161 105.717 37.8132C103.569 35.6986 100.247 30.6553 98.3328 26.6054C92.0314 13.2719 78.6897 3.32638 63.8378 0.889278C56.4834 -0.318074 55.835 -0.312475 49.1435 1.00688ZM171.622 15.9689C160.42 19.9739 151.121 31.9657 149.881 44.0056C148.714 55.3265 154.637 67.6912 164.416 74.3496C166.705 75.9064 171.842 77.9884 175.833 78.9751C182.517 80.6283 183.678 80.6249 190.528 78.9315C205.346 75.2669 213.273 65.1981 213.273 50.0413V43.4882H198.182H183.09V48.5282V53.5681H193.71C205.592 53.5681 205.785 53.7406 201.797 60.7641C197.18 68.8919 183.614 72.9854 174.479 69.0061C161.984 63.5629 156.226 49.2494 161.735 37.3282C167.536 24.7731 181.471 19.9482 193.941 26.1742L199.643 29.0212L202.77 26.1171L205.898 23.213L202.599 20.5194C195.506 14.7301 181.033 12.6044 171.622 15.9689ZM356.359 47.4082V78.208H360.831H365.302V47.4082V16.6084H360.831H356.359V47.4082ZM449.135 20.9472C441.183 23.5613 434.37 29.3808 430.675 36.7178C427.841 42.3436 427.226 53.3161 429.387 59.6721C433.612 72.095 444.701 79.8577 458.009 79.7087C466.195 79.6169 471.379 77.8249 476.866 73.1904L480.555 70.0734L478.158 67.5176L475.763 64.9618L470.745 68.5043C466.216 71.703 464.929 72.048 457.538 72.048C450.071 72.048 448.978 71.7467 445.126 68.6231C437.423 62.3769 436.286 60.0114 436.286 50.2227C436.286 42.2696 436.603 40.9928 439.64 36.6842C446.472 26.9941 459.786 24.1918 469.233 30.456C474.012 33.6233 474.017 33.6244 476.247 31.39C478.989 28.6416 478.358 27.5283 471.916 23.7461C466.501 20.5664 454.704 19.1172 449.135 20.9472ZM68.7162 23.4291C76.9671 27.4309 82.4826 36.3046 82.4826 45.5781C82.4826 48.0018 83.0192 49.0881 84.2153 49.0881C87.3543 49.0881 92.0851 52.2297 93.4433 55.2167C95.9685 60.7697 95.1324 65.7581 90.9784 69.92L87.1777 73.728H58.0741C41.8729 73.728 27.6995 73.2441 26.1043 72.636C22.6166 71.3077 18.7745 65.3079 18.7689 61.1807C18.7533 49.7949 32.7724 43.8746 41.0144 51.7851L44.0114 54.6623L50.6235 47.9682L57.2357 41.274L53.3835 37.2924C51.2652 35.1028 47.1369 32.4585 44.2092 31.4169C41.2816 30.3753 38.886 29.1713 38.886 28.7412C38.886 27.7142 44.6519 23.6262 47.991 22.2867C52.8716 20.3279 63.536 20.9159 68.7162 23.4291ZM487.149 49.6481V78.208H490.503H493.856V49.6481V21.0883H490.503H487.149V49.6481ZM620.175 32.2099V43.3303L615.071 40.472C605.679 35.2126 595.145 38.9847 590.107 49.4118C586.965 55.9134 587.126 61.9412 590.631 68.9859C596.247 80.2788 609.293 83.5806 617.559 75.8L620.175 73.3371V75.7731C620.175 77.8092 620.816 78.208 624.088 78.208H628V49.6481V21.0883H624.088H620.175V32.2099ZM226.508 41.1216C210.854 51.0683 214.804 74.3888 232.964 79.2271C240.934 81.3507 248.536 78.8351 254.412 72.1286C258.301 67.6923 259.647 62.5191 258.822 55.1854C257.201 40.7868 239.299 32.9939 226.508 41.1216ZM275.314 39.65C267.064 43.9485 263.577 49.619 263.577 58.7335C263.577 73.0974 276.054 82.6902 290.121 79.142C300.827 76.4406 307.849 64.4029 304.97 53.688C303.465 48.0891 297.903 41.4644 292.974 39.4013C288.134 37.3753 279.445 37.4973 275.314 39.65ZM319.879 40.0375C317.952 41.2146 314.933 44.0717 313.172 46.3856C310.328 50.1219 309.968 51.5029 309.968 58.6966C309.968 66.0919 310.272 67.176 313.44 71.1038C315.349 73.4715 318.514 76.3488 320.472 77.4979C325.095 80.2105 333.907 80.3819 337.788 77.8339L340.709 75.9164V79.9484C340.709 85.5887 335.739 90.5279 330.064 90.5279C326.895 90.5279 325.099 89.6722 322.224 86.7916C318.697 83.258 318.307 83.1326 315.07 84.4967C310.531 86.4085 310.75 88.3383 316.052 93.1375C325.81 101.969 338.96 100.697 346.754 90.1695C348.928 87.234 349.118 85.3132 349.434 63.0097L349.775 39.0082H345.335C342.893 39.0082 340.696 39.6074 340.453 40.3388C340.139 41.2818 339.227 41.1194 337.316 39.7788C333.582 37.158 324.367 37.2946 319.879 40.0375ZM380.393 39.9725C368.577 47.2838 366.313 63.4711 375.696 73.5387C382.903 81.2723 395.223 82.0126 404.148 75.2478C408.553 71.908 408.701 70.3266 404.825 67.9701C402.031 66.2711 401.658 66.3181 397.963 68.8314C392.246 72.7177 384.704 71.9394 382.173 67.1995C381.123 65.2351 382.181 64.5743 394.122 59.7225C401.326 56.7948 407.683 53.978 408.245 53.4628C409.895 51.952 403.151 42.2584 398.856 39.9669C393.732 37.233 384.816 37.2353 380.393 39.9725ZM514.14 39.0866C502.412 43.7928 497.263 57.2283 502.796 68.6813C509.927 83.4394 531.259 83.6086 538.714 68.9658C542.121 62.2761 541.337 52.0237 536.979 46.3005C531.717 39.389 521.461 36.1489 514.14 39.0866ZM547.142 39.7553C545.958 40.9413 546.29 64.8991 547.553 69.4563C548.917 74.3753 553.984 78.9718 559.104 79.9339C563.259 80.7145 570.695 78.1486 572.945 75.1571C574.202 73.4872 574.343 73.5465 574.343 75.754C574.343 77.8115 574.974 78.208 578.255 78.208H582.168V58.6081V39.0082H578.347H574.525L574.155 52.9208C573.81 65.8432 573.59 67.0394 571.074 69.7206C567.521 73.5051 560.102 73.784 556.91 70.2538C555.095 68.2479 554.725 65.7648 554.412 53.4539L554.043 39.0082H550.965C549.272 39.0082 547.551 39.3442 547.142 39.7553ZM525.523 46.1358C530.479 48.2101 532.982 52.4067 532.982 58.6428C532.982 67.7405 528.803 72.5419 520.853 72.5833C516.796 72.6035 515.361 71.9774 512.189 68.8C508.956 65.561 508.389 64.2136 508.389 59.7841C508.389 53.1112 510.944 48.2101 515.448 46.2478C519.966 44.2778 521.057 44.2666 525.523 46.1358ZM612.985 46.2478C617.941 48.3232 620.647 54.1976 619.862 61.1796C618.659 71.8677 607.72 76.4372 599.961 69.4922C593.449 63.6615 594.371 51.1613 601.641 46.7194C605.793 44.1837 607.849 44.0986 612.985 46.2478ZM245.306 48.5405C246.697 49.4521 248.418 52.1524 249.133 54.5403C252.471 65.7032 241.186 75.7529 232.246 69.5795C227.8 66.5096 226.761 64.525 226.723 59.0393C226.648 48.1854 236.386 42.684 245.306 48.5405ZM291.294 48.6626C294.37 50.6573 295.995 54.5436 295.995 59.9129C295.995 65.5173 290.006 71.488 284.387 71.488C278.422 71.488 273.563 66.7269 272.922 60.2522C272.301 53.9814 274.178 50.2429 279.242 47.6624C283.391 45.5478 286.944 45.8435 291.294 48.6626ZM336.977 48.6054C340.094 50.5721 342.243 57.1543 341.341 61.9737C340.415 66.9151 335.038 71.488 330.154 71.488C319.88 71.488 314.851 57.3806 322.421 49.796C326.624 45.5848 331.55 45.1816 336.977 48.6054ZM395.64 47.892L398.279 50.0558L394.031 51.8501C391.696 52.8368 387.258 54.6422 384.171 55.8619L378.557 58.0783L379.311 55.5438C381.919 46.7922 389.797 43.1007 395.64 47.892Z" fill="#869AA7"/>
</svg>
