<svg width="408" height="114" viewBox="0 0 408 114" fill="none" xmlns="http://www.w3.org/2000/svg">
<path fill-rule="evenodd" clip-rule="evenodd" d="M20.768 10.4734C10.2235 15.7686 1.37129 20.3915 1.09689 20.7457C0.540505 21.4637 0.367159 37.8839 0.906768 38.735C1.07013 38.9922 3.0672 40.1326 5.34506 41.2686C7.62252 42.4041 9.32881 43.4836 9.1359 43.6671C8.94338 43.8507 7.07811 44.8572 4.99118 45.9042C2.90424 46.9509 1.06454 48.0047 0.903173 48.2459C0.741809 48.4871 0.607207 52.5935 0.603612 57.3714C0.598819 64.1371 0.716646 66.1747 1.13643 66.5874C1.4328 66.8783 3.50535 68.0139 5.74207 69.1106L9.80931 71.1041L5.50282 73.2674C3.1347 74.4571 1.06454 75.6335 0.903173 75.8816C0.514942 76.479 0.522931 93.4257 0.91196 94.0396C1.36569 94.7552 40.579 114.058 40.8114 113.68C40.9221 113.501 49.668 109.017 60.2469 103.717C70.8262 98.4172 79.6141 93.8741 79.7755 93.6212C79.9368 93.3688 80.0686 89.3754 80.0686 84.7474C80.0686 80.1193 79.9368 76.1296 79.7755 75.8816C79.6141 75.6335 77.5128 74.4415 75.1059 73.2322L70.7299 71.0339L75.3056 68.6746L79.8813 66.3153V57.2997V48.284L75.5629 46.0216C73.1875 44.7775 71.1497 43.6647 71.0339 43.5489C70.9185 43.4331 72.862 42.2871 75.3528 41.0025L79.8813 38.6673V29.6516V20.6359L60.31 10.7395C49.5458 5.29642 40.559 0.843471 40.3393 0.843872C40.1196 0.844673 31.3126 5.17781 20.768 10.4734ZM51.2553 24.2991C57.1139 27.3051 61.9732 29.8203 62.0535 29.888C62.1338 29.9557 60.1123 31.0528 57.5621 32.3266L52.9249 34.6423L46.6321 31.5164L40.3393 28.3906L34.0474 31.4279L27.755 34.4651L23.363 32.2553C20.9474 31.04 18.9707 29.9577 18.9707 29.8499C18.9707 29.692 40.0158 18.9289 40.4711 18.8544C40.5434 18.8424 45.3963 21.2926 51.2553 24.2991ZM110.227 31.413C108.069 32.3563 108.04 32.6179 108.04 51.3016V68.5063L109.188 69.795C110.528 71.3 112.456 71.5256 114.197 70.3816C115.744 69.3642 116.028 68.2174 116.029 62.9835V58.3014L119.15 55.4376L122.272 52.5734L127.438 60.5954C130.279 65.0075 133.1 69.1242 133.707 69.7441C136.144 72.2336 140.792 70.9819 140.792 67.836C140.792 65.9459 140.26 65.0247 133.721 55.5827C130.549 51.0023 128.011 47.1003 128.082 46.9116C128.152 46.7229 130.277 44.6184 132.804 42.2347C135.33 39.8513 137.71 37.4423 138.093 36.8817C139.883 34.2616 138.258 31.2544 135.052 31.2544H133.27L124.649 40.155L116.028 49.0557V41.7378C116.028 33.479 115.756 32.4032 113.419 31.4231C111.794 30.7427 111.761 30.7423 110.227 31.413ZM160.886 31.1333C158.714 31.5565 157.807 33.3212 151.215 49.9501C147.679 58.8704 144.786 66.7116 144.786 67.3748C144.786 69.141 146.69 70.9233 148.576 70.9233C149.376 70.9233 150.36 70.7466 150.763 70.5303C151.445 70.1644 153.252 66.2809 154.356 62.8092L154.833 61.3066H162.528H170.222L171.35 64.2117C173.37 69.4143 174.605 70.9233 176.839 70.9233C178.777 70.9233 180.733 69.1875 180.733 67.4685C180.733 66.1254 168.208 34.494 167.134 33.1232C165.739 31.3449 163.485 30.6269 160.886 31.1333ZM243.242 31.6034C241.179 32.5486 240.759 33.3456 236.249 44.8781C229.097 63.1671 227.864 66.4989 227.864 67.5343C227.864 69.1358 229.863 70.9233 231.654 70.9233C234.229 70.9233 234.653 70.3828 237.165 63.9112L238.098 61.507L245.73 61.3984L253.363 61.2894L254.195 63.5205C256.308 69.1851 257.651 70.9233 259.918 70.9233C261.123 70.9233 261.753 70.6461 262.694 69.702C263.765 68.6274 263.886 68.2791 263.704 66.797C263.477 64.9474 251.39 34.8991 250.193 33.207C249.344 32.0073 247.164 30.8497 245.778 30.8625C245.262 30.8673 244.12 31.2007 243.242 31.6034ZM384.985 31.4082C384.3 31.7192 383.289 32.5783 382.739 33.3167C381.548 34.9187 369.652 64.8636 369.36 66.9973C369.187 68.2591 369.338 68.6626 370.374 69.702C371.341 70.6713 371.934 70.9233 373.251 70.9233C375.445 70.9233 376.204 70.027 378.04 65.2699L379.492 61.507L387.095 61.3984L394.699 61.2898L396.201 64.9265C398.188 69.7341 399.194 70.9233 401.276 70.9233C402.519 70.9233 403.137 70.6549 404.087 69.702C405.147 68.6382 405.276 68.2747 405.091 66.8867C404.867 65.2154 393.237 35.7574 391.986 33.6926C390.546 31.3169 387.43 30.2999 384.985 31.4082ZM188.123 32.2104C185.633 33.2987 185.726 32.5582 185.726 51.2684C185.726 67.0546 185.781 68.4378 186.446 69.4564C186.842 70.0623 187.632 70.7362 188.201 70.9534C189.552 71.4687 191.753 70.7567 192.419 69.589C192.775 68.9659 192.972 64.9742 193.115 55.4965L193.315 42.2735L196.457 54.6951C198.185 61.527 199.948 67.8067 200.375 68.6498C201.838 71.5392 205.641 72.0958 207.64 69.7124C208.796 68.3344 208.959 67.7971 212.559 53.493L215.283 42.6742L215.482 55.7886L215.682 68.903L216.77 69.9933C218.258 71.4851 220.296 71.4851 221.784 69.9929L222.872 68.9022L222.994 52.3823C223.072 41.8864 222.967 35.3511 222.707 34.4599C222.145 32.5402 220.997 31.9476 217.432 31.7376C213.539 31.508 211.762 32.0694 210.951 33.7856C210.615 34.4956 209.029 40.0717 207.428 46.1767C205.826 52.2817 204.405 57.1466 204.271 56.9875C204.136 56.8288 202.804 52.0105 201.311 46.2805C197.969 33.4582 197.77 32.9261 196.062 32.2096C194.403 31.5144 189.713 31.5148 188.123 32.2104ZM262.756 32.0449C261.633 32.5093 260.616 33.9991 260.616 35.1808C260.616 35.6997 261.141 36.6513 261.784 37.2957C262.95 38.4661 262.955 38.4669 267.975 38.4669H272.998V52.4412C272.998 60.127 273.11 66.9765 273.246 67.6621C273.659 69.7321 275.074 70.9233 277.118 70.9233C279.449 70.9233 280.779 69.6435 281.132 67.0606C281.271 66.0381 281.386 59.1865 281.386 51.8342V38.4669H286.396C291.184 38.4669 291.451 38.4232 292.388 37.4832C293.595 36.2723 293.693 34.1506 292.605 32.8015L291.842 31.8554L277.727 31.7729C269.964 31.7276 263.227 31.8502 262.756 32.0449ZM300.281 32.0598C299.8 32.2541 299.081 32.9108 298.684 33.5191C298.017 34.5405 297.961 35.8812 297.961 51.0712C297.961 69.1374 297.935 68.9319 300.377 69.9557C302.1 70.6777 323.657 70.7835 325.67 70.0799C327.897 69.3009 328.433 66.7962 326.737 65.0952L325.757 64.1115H315.953H306.149V58.7021V53.2927H314.892C322.632 53.2927 323.732 53.2121 324.477 52.5915C325.727 51.5501 325.961 49.6724 324.991 48.4695L324.195 47.4826L315.172 47.3612L306.149 47.2398V42.653V38.0662H315.513C324.757 38.0662 324.891 38.0542 325.965 37.1278C327.457 35.8403 327.457 33.8809 325.965 32.5935L324.877 31.6551L313.017 31.6803C306.494 31.6943 300.763 31.865 300.281 32.0598ZM335.837 32.2232C333.488 33.2783 333.509 33.0984 333.509 51.5072C333.509 70.3003 333.464 69.9829 336.257 70.9073C337.362 71.2732 337.921 71.2435 339.081 70.7571C341.353 69.8046 341.697 68.4855 341.697 60.7184V54.0941L343.994 54.1029C348.613 54.1205 349.747 55.1255 355.007 63.8671C359.093 70.6573 360.202 71.6077 363.148 70.842C364.63 70.4565 365.662 69.1787 365.662 67.7286C365.661 64.9253 360.611 56.9218 357.045 54.0724L355.764 53.0491L357.644 52.3791C360.276 51.4415 362.039 50.1572 363.439 48.1606C364.433 46.7413 364.667 45.9631 364.797 43.6383C365.027 39.556 364.324 37.4784 361.89 35.0502C360.779 33.9426 359.152 32.7858 358.273 32.4793C355.884 31.6466 337.586 31.4379 335.837 32.2232ZM353.792 38.612C355.928 39.5187 356.675 40.6759 356.675 43.0749C356.675 44.628 356.462 45.435 355.876 46.0934C354.422 47.7298 352.863 48.0836 347.102 48.0836H341.697V43.0749V38.0662H347.102C350.768 38.0662 352.921 38.2417 353.792 38.612ZM165.311 47.6292C166.763 51.6767 167.952 55.0578 167.952 55.1423C167.952 55.2269 165.526 55.2962 162.56 55.2962C159.594 55.2962 157.168 55.1499 157.168 54.9712C157.168 54.7925 158.336 51.4158 159.764 47.4674C161.192 43.5189 162.36 40.2087 162.36 40.1122C162.36 39.5464 162.937 41.0153 165.311 47.6292ZM248.416 47.4177C249.854 51.3321 251.03 54.7063 251.03 54.9155C251.03 55.3222 240.947 55.4653 240.548 55.0642C240.34 54.8562 241.202 52.21 244.493 42.9555C245.065 41.3471 245.594 40.0917 245.667 40.1659C245.741 40.2396 246.978 43.5029 248.416 47.4177ZM390.017 47.8909C391.34 51.5881 392.423 54.7673 392.423 54.9548C392.423 55.3747 382.155 55.4144 381.907 54.9956C381.809 54.8306 382.907 51.3898 384.346 47.3496C386.102 42.4194 387.069 40.1955 387.287 40.5862C387.466 40.9059 388.694 44.1933 390.017 47.8909ZM58.0781 55.2785C60.312 56.4033 62.0591 57.4531 61.9604 57.6122C61.8614 57.7709 59.8243 58.8676 57.4334 60.0492L53.0862 62.1974L48.2106 59.7455C45.5289 58.3968 43.3349 57.1927 43.3349 57.0693C43.3349 56.9458 45.3484 55.8836 47.8092 54.7087C52.8773 52.2893 52.0489 52.2433 58.0781 55.2785ZM32.7457 54.9868C35.0551 56.1388 36.9443 57.1798 36.9443 57.2997C36.9443 57.6306 28.6325 61.7073 27.9575 61.7073C27.2853 61.7073 18.9635 57.6278 18.9838 57.3085C19.0018 57.0268 27.4271 52.9453 28.0525 52.9156C28.3245 52.9024 30.4362 53.8348 32.7457 54.9868ZM57.2098 82.4386C59.8978 83.7084 62.0543 84.8848 62.0007 85.0531C61.9476 85.2214 57.0875 87.7382 51.2006 90.6465L40.4971 95.934L29.7337 90.5471C23.814 87.5839 18.9707 85.0631 18.9707 84.9449C18.9707 84.5719 27.3344 80.5389 28.0621 80.5613C28.444 80.5729 31.4212 81.886 34.678 83.4788C37.9352 85.072 40.6904 86.2284 40.8006 86.0489C40.9788 85.76 51.6204 80.2203 52.122 80.1558C52.2319 80.1414 54.5213 81.1688 57.2098 82.4386ZM239.827 83.0625C236.473 84.2048 234.852 86.6503 234.858 90.5575C234.867 95.4196 237.743 98.4452 242.017 98.0894C245.976 97.76 248.209 94.9888 248.226 90.3836C248.246 84.9946 244.287 81.5438 239.827 83.0625ZM315.407 83.0044C313.045 83.5505 310.82 85.8249 310.189 88.3368C308.761 94.0279 312.289 98.4104 318.031 98.0774C320.644 97.9259 321.503 97.4944 321.131 96.5223C320.958 96.0703 320.293 95.9765 318.127 96.0995C315.405 96.2538 315.316 96.2278 313.974 94.8814C309.805 90.6989 313.231 83.7813 318.988 84.757C320.534 85.0191 321.299 84.6636 321.321 83.6723C321.338 82.9386 317.544 82.5103 315.407 83.0044ZM346.69 82.7251C346.47 82.8072 345.8 82.9827 345.199 83.1154C343.735 83.4391 341.305 85.6329 340.639 87.2325C339.125 90.8676 340.559 95.5935 343.678 97.2479C346.466 98.7273 351.528 98.3366 351.206 96.6669C351.092 96.0735 350.7 95.9873 348.627 96.1011C344.135 96.3484 342.283 94.4539 342.572 89.9068C342.696 87.9446 342.943 87.1532 343.671 86.3746C344.974 84.9842 346.923 84.4212 349.3 84.7494C351.117 85.0002 351.283 84.955 351.283 84.2077C351.283 83.7593 351.149 83.3089 350.984 83.2071C350.539 82.9326 347.152 82.5524 346.69 82.7251ZM368.313 83.1174C366.332 83.8426 364.604 85.5123 364.03 87.2542C363.335 89.3678 363.723 93.9125 364.713 95.2529C366.08 97.1049 367.985 98.1707 369.928 98.1707C373.587 98.1707 376.039 96.1324 376.872 92.3995C377.673 88.8093 376.272 84.9053 373.705 83.5738C371.97 82.6734 369.984 82.5055 368.313 83.1174ZM188.322 90.5855V98.2264L189.221 98.0986C190.046 97.9808 190.129 97.7312 190.237 95.0653L190.354 92.1603H191.748C194.73 92.1603 197.509 90.0206 197.509 87.7246C197.509 84.4417 195.542 82.9479 191.218 82.9459L188.322 82.9443V90.5855ZM200.305 90.3571V97.77H204.698C208.825 97.77 209.092 97.7216 209.092 96.9686C209.092 96.2342 208.825 96.1673 205.896 96.1673H202.701V93.5627V90.9582H205.525C208.225 90.9582 208.343 90.9185 208.221 90.0566C208.105 89.2376 207.847 89.1442 205.397 89.0364L202.701 88.9182V86.9504V84.983L205.597 84.8652C208.254 84.757 208.503 84.6733 208.62 83.8458C208.746 82.9595 208.676 82.9443 204.526 82.9443H200.305V90.3571ZM212.154 83.2115C211.712 83.6547 211.842 97.6943 212.291 97.9728C212.512 98.1098 213.052 98.1086 213.489 97.9692C214.195 97.7444 214.284 97.3593 214.284 94.5376C214.284 91.0744 214.345 91.0027 216.621 91.7989C217.703 92.1771 217.966 92.5562 218.495 94.5036C219.306 97.4855 219.584 97.9447 220.673 98.1058C221.51 98.23 221.565 98.1299 221.325 96.9258C220.775 94.1638 220.24 92.6059 219.549 91.75C218.851 90.8853 218.861 90.836 219.954 89.7397C221.845 87.8424 221.412 84.7566 219.085 83.5493C217.908 82.939 212.68 82.6838 212.154 83.2115ZM224.27 90.3431V97.77H225.268C226.25 97.77 226.267 97.7167 226.267 94.5645V91.3589H229.062C231.778 91.3589 231.858 91.3304 231.858 90.3571C231.858 89.3839 231.778 89.3554 229.062 89.3554H226.267V87.1684V84.9814L229.362 84.8644C232.152 84.759 232.457 84.6685 232.457 83.946C232.457 83.2043 232.153 83.1362 228.363 83.0304L224.27 82.9162V90.3431ZM251.521 90.4573C251.625 97.6671 251.662 97.9704 252.428 97.9704C253.154 97.9704 253.238 97.6643 253.344 94.615L253.461 91.2595L254.941 91.4975C256.817 91.7989 257.546 92.7016 258.17 95.4993C258.535 97.1357 258.885 97.8009 259.483 97.9908C260.944 98.4564 261.131 97.6426 260.245 94.6594C259.787 93.1155 259.146 91.6314 258.821 91.3609C258.313 90.9374 258.397 90.713 259.423 89.7509C260.73 88.5268 260.971 86.9693 260.139 85.1369C259.416 83.5453 257.853 82.9443 254.436 82.9443H251.412L251.521 90.4573ZM264.083 85.649C263.949 87.1367 263.718 90.4681 263.568 93.0522C263.324 97.27 263.366 97.7773 263.98 98.0137C264.356 98.1587 264.842 98.0986 265.06 97.8802C265.277 97.6623 265.582 94.9784 265.738 91.9167L266.02 86.3502L267.945 92.0601C269.637 97.0804 269.974 97.77 270.744 97.77C271.507 97.77 271.873 97.0572 273.606 92.1976C274.7 89.1326 275.658 86.6872 275.736 86.7629C275.813 86.839 275.993 89.3899 276.135 92.4312C276.343 96.8949 276.508 97.9816 276.992 98.0654C278.491 98.3262 278.562 97.8169 278.068 90.3475L277.591 83.1446H276.231H274.87L272.881 88.8541L270.892 94.5633L268.959 88.8541C267.896 85.7139 267.022 83.0993 267.016 83.0444C267.011 82.9895 266.404 82.9443 265.666 82.9443H264.326L264.083 85.649ZM285.612 83.2925C284.838 84.5482 280.675 97.6182 280.958 97.9019C281.786 98.7321 282.966 97.6943 283.642 95.5434L284.327 93.3624H286.819H289.31L290 95.466C290.379 96.6228 290.888 97.7023 291.13 97.8642C291.754 98.2813 292.969 98.2409 292.969 97.8025C292.969 97.6001 291.871 94.1742 290.529 90.1893C288.134 83.0781 288.068 82.9443 286.958 82.9443C286.335 82.9443 285.73 83.1009 285.612 83.2925ZM295.765 90.5855V98.2264L296.663 98.0986C297.542 97.9732 297.564 97.8394 297.673 92.2284L297.784 86.4868L301.132 92.0248C304.608 97.7761 305.201 98.4677 306.295 98.0469C306.867 97.8265 306.948 96.8749 306.948 90.3696V82.9443H305.961H304.974L304.862 88.3256L304.751 93.707L301.397 88.3256C298.366 83.4628 297.933 82.9443 296.903 82.9443H295.765V90.5855ZM324.123 90.3571V97.77H328.317C332.214 97.77 332.511 97.7147 332.511 96.9855C332.511 96.2843 332.182 96.1885 329.415 96.0839L326.32 95.9669L326.201 93.4625L326.082 90.9582H329.124C332.051 90.9582 332.162 90.9237 332.039 90.0566C331.923 89.2376 331.665 89.1442 329.216 89.0364L326.52 88.9182V86.9328V84.9477H329.067C330.81 84.9477 331.767 84.7634 332.097 84.3643C333.01 83.26 332.12 82.9443 328.094 82.9443H324.123V90.3571ZM354.079 90.3307V97.77H358.273C362.2 97.77 362.467 97.7192 362.467 96.9686C362.467 96.2386 362.2 96.1673 359.481 96.1673H356.496L356.386 89.6559L356.276 83.1446L355.177 83.018L354.079 82.891V90.3307ZM380.043 88.6542C380.044 93.6104 380.147 94.5336 380.824 95.6467C382.95 99.1464 388.38 98.9373 390.272 95.2833C390.812 94.2403 390.963 92.8282 390.99 88.554L391.025 83.1446L389.926 83.018L388.828 82.891L388.822 88.227C388.816 94.0744 388.505 95.23 386.705 96.0959C385.146 96.846 383.598 96.2398 382.738 94.5404C382.181 93.4421 382.039 92.1234 382.039 88.0531L382.038 82.9443H381.04H380.041L380.043 88.6542ZM395.015 83.4115C394.896 83.7212 394.849 87.1231 394.909 90.9722L395.019 97.9704L397.503 98.0894C402.441 98.3258 405.5 96.5559 406.606 92.8238C407.65 89.3041 406.65 86.044 403.901 84.0013C402.477 82.9427 395.374 82.4714 395.015 83.4115ZM193.381 84.973C194.763 85.5003 195.098 86.0084 195.106 87.5903C195.114 89.2104 193.935 90.2518 192.026 90.3107L190.519 90.3571L190.398 87.9978C190.331 86.7004 190.37 85.3929 190.485 85.0928C190.735 84.4385 191.857 84.392 193.381 84.973ZM218.403 85.8116C219.229 86.8262 219.03 88.4514 217.98 89.2552C217.621 89.5309 216.552 89.7561 215.606 89.7561H213.885V87.3852C213.885 85.8733 214.066 84.9345 214.384 84.7939C215.385 84.3523 217.69 84.9361 218.403 85.8116ZM244.239 85.6858C248.171 89.6311 245.193 97.7392 240.395 96.1504C238.64 95.5694 237.47 93.8492 237.184 91.4282C236.889 88.9291 237.566 86.8607 239.105 85.562C240.782 84.1463 242.751 84.1936 244.239 85.6858ZM257.7 85.415C258.43 86.0228 258.347 88.1497 257.559 89.0232C257.111 89.5189 256.336 89.7561 255.162 89.7561H253.427V87.4188C253.427 86.133 253.561 84.9453 253.726 84.7794C254.115 84.3888 257.027 84.8544 257.7 85.415ZM372.782 85.5512C375.885 88.1713 375.044 94.9784 371.471 96.1616C369.41 96.844 367.45 95.8735 366.457 93.6781C363.92 88.0708 368.617 82.0355 372.782 85.5512ZM402.421 85.5556C405.809 87.3135 405.534 93.8588 401.997 95.6548C401.454 95.93 400.156 96.158 399.113 96.1612L397.216 96.1673V90.5575V84.9477H399.233C400.342 84.9477 401.777 85.2214 402.421 85.5556ZM287.74 88.2311C288.9 91.6782 288.878 91.7596 286.778 91.7596C285.789 91.7596 284.98 91.637 284.98 91.4875C284.98 91.1381 286.708 85.7491 286.82 85.7491C286.866 85.7491 287.28 86.8659 287.74 88.2311Z" fill="#869AA7"/>
</svg>
